<svg width="32" height="42" viewBox="0 0 32 42" fill="none" xmlns="http://www.w3.org/2000/svg">
<rect y="4.80952" width="32" height="32" fill="white"/>
<rect y="4.80952" width="32" height="32" fill="white"/>
<path d="M5.924 21.144C5.924 19.2027 6.344 17.476 7.184 15.964C8.024 14.4333 9.19067 13.248 10.684 12.408C12.196 11.5493 13.904 11.12 15.808 11.12C18.1413 11.12 20.1387 11.736 21.8 12.968C23.4613 14.2 24.572 15.88 25.132 18.008H19.868C19.476 17.1867 18.916 16.5613 18.188 16.132C17.4787 15.7027 16.6667 15.488 15.752 15.488C14.2773 15.488 13.0827 16.0013 12.168 17.028C11.2533 18.0547 10.796 19.4267 10.796 21.144C10.796 22.8613 11.2533 24.2333 12.168 25.26C13.0827 26.2867 14.2773 26.8 15.752 26.8C16.6667 26.8 17.4787 26.5853 18.188 26.156C18.916 25.7267 19.476 25.1013 19.868 24.28H25.132C24.572 26.408 23.4613 28.088 21.8 29.32C20.1387 30.5333 18.1413 31.14 15.808 31.14C13.904 31.14 12.196 30.72 10.684 29.88C9.19067 29.0213 8.024 27.836 7.184 26.324C6.344 24.812 5.924 23.0853 5.924 21.144Z" fill="black"/>
<path d="M5.924 21.144C5.924 19.2027 6.344 17.476 7.184 15.964C8.024 14.4333 9.19067 13.248 10.684 12.408C12.196 11.5493 13.904 11.12 15.808 11.12C18.1413 11.12 20.1387 11.736 21.8 12.968C23.4613 14.2 24.572 15.88 25.132 18.008H19.868C19.476 17.1867 18.916 16.5613 18.188 16.132C17.4787 15.7027 16.6667 15.488 15.752 15.488C14.2773 15.488 13.0827 16.0013 12.168 17.028C11.2533 18.0547 10.796 19.4267 10.796 21.144C10.796 22.8613 11.2533 24.2333 12.168 25.26C13.0827 26.2867 14.2773 26.8 15.752 26.8C16.6667 26.8 17.4787 26.5853 18.188 26.156C18.916 25.7267 19.476 25.1013 19.868 24.28H25.132C24.572 26.408 23.4613 28.088 21.8 29.32C20.1387 30.5333 18.1413 31.14 15.808 31.14C13.904 31.14 12.196 30.72 10.684 29.88C9.19067 29.0213 8.024 27.836 7.184 26.324C6.344 24.812 5.924 23.0853 5.924 21.144Z" fill="black"/>
</svg>
